<svg width="331" height="49" viewBox="0 0 331 49" fill="none" xmlns="http://www.w3.org/2000/svg">
<path d="M36.928 37.088C37.3973 37.088 37.8133 37.2693 38.176 37.632L41.568 41.312C39.6907 43.6373 37.376 45.4187 34.624 46.656C31.8933 47.8933 28.608 48.512 24.768 48.512C21.3333 48.512 18.24 47.9253 15.488 46.752C12.7573 45.5787 10.4213 43.9467 8.48 41.856C6.53867 39.7653 5.04533 37.2693 4 34.368C2.976 31.4667 2.464 28.2987 2.464 24.864C2.464 21.3867 3.01867 18.208 4.128 15.328C5.23733 12.4267 6.79467 9.93066 8.8 7.84C10.8267 5.74933 13.2373 4.128 16.032 2.976C18.8267 1.80267 21.92 1.216 25.312 1.216C28.6827 1.216 31.6693 1.77067 34.272 2.88C36.896 3.98933 39.1253 5.44 40.96 7.232L38.08 11.232C37.9093 11.488 37.6853 11.712 37.408 11.904C37.152 12.096 36.7893 12.192 36.32 12.192C36 12.192 35.6693 12.1067 35.328 11.936C34.9867 11.744 34.6133 11.52 34.208 11.264C33.8027 10.9867 33.3333 10.688 32.8 10.368C32.2667 10.048 31.648 9.76 30.944 9.504C30.24 9.22666 29.4187 9.00266 28.48 8.832C27.5627 8.64 26.496 8.544 25.28 8.544C23.2107 8.544 21.312 8.91733 19.584 9.664C17.8773 10.3893 16.4053 11.456 15.168 12.864C13.9307 14.2507 12.9707 15.9573 12.288 17.984C11.6053 19.9893 11.264 22.2827 11.264 24.864C11.264 27.4667 11.6267 29.7813 12.352 31.808C13.0987 33.8347 14.1013 35.5413 15.36 36.928C16.6187 38.3147 18.1013 39.3813 19.808 40.128C21.5147 40.8533 23.3493 41.216 25.312 41.216C26.4853 41.216 27.5413 41.152 28.48 41.024C29.44 40.896 30.3147 40.6933 31.104 40.416C31.9147 40.1387 32.672 39.7867 33.376 39.36C34.1013 38.912 34.816 38.368 35.52 37.728C35.7333 37.536 35.9573 37.3867 36.192 37.28C36.4267 37.152 36.672 37.088 36.928 37.088ZM54.3165 0.447998V48H46.4125V0.447998H54.3165ZM70.4835 15.168V48H62.5475V15.168H70.4835ZM71.5715 5.6C71.5715 6.28266 71.4328 6.92266 71.1555 7.52C70.8782 8.11733 70.5048 8.64 70.0355 9.088C69.5875 9.536 69.0542 9.89867 68.4355 10.176C67.8168 10.432 67.1555 10.56 66.4515 10.56C65.7688 10.56 65.1182 10.432 64.4995 10.176C63.9022 9.89867 63.3795 9.536 62.9315 9.088C62.4835 8.64 62.1208 8.11733 61.8435 7.52C61.5875 6.92266 61.4595 6.28266 61.4595 5.6C61.4595 4.896 61.5875 4.23466 61.8435 3.616C62.1208 2.99733 62.4835 2.464 62.9315 2.016C63.3795 1.568 63.9022 1.216 64.4995 0.959999C65.1182 0.682666 65.7688 0.543999 66.4515 0.543999C67.1555 0.543999 67.8168 0.682666 68.4355 0.959999C69.0542 1.216 69.5875 1.568 70.0355 2.016C70.5048 2.464 70.8782 2.99733 71.1555 3.616C71.4328 4.23466 71.5715 4.896 71.5715 5.6ZM86.0335 19.2C86.6948 18.5387 87.3882 17.9307 88.1135 17.376C88.8602 16.8 89.6388 16.32 90.4495 15.936C91.2815 15.5307 92.1668 15.2213 93.1055 15.008C94.0442 14.7733 95.0682 14.656 96.1775 14.656C97.9695 14.656 99.5588 14.9653 100.946 15.584C102.332 16.1813 103.484 17.0347 104.402 18.144C105.34 19.232 106.044 20.544 106.514 22.08C107.004 23.5947 107.25 25.2693 107.25 27.104V48H99.3455V27.104C99.3455 25.0987 98.8868 23.552 97.9695 22.464C97.0522 21.3547 95.6548 20.8 93.7775 20.8C92.4122 20.8 91.1322 21.1093 89.9375 21.728C88.7428 22.3467 87.6122 23.1893 86.5455 24.256V48H78.6415V15.168H83.4735C84.4975 15.168 85.1695 15.648 85.4895 16.608L86.0335 19.2ZM123.059 15.168V48H115.123V15.168H123.059ZM124.147 5.6C124.147 6.28266 124.008 6.92266 123.731 7.52C123.453 8.11733 123.08 8.64 122.611 9.088C122.163 9.536 121.629 9.89867 121.011 10.176C120.392 10.432 119.731 10.56 119.027 10.56C118.344 10.56 117.693 10.432 117.075 10.176C116.477 9.89867 115.955 9.536 115.507 9.088C115.059 8.64 114.696 8.11733 114.419 7.52C114.163 6.92266 114.035 6.28266 114.035 5.6C114.035 4.896 114.163 4.23466 114.419 3.616C114.696 2.99733 115.059 2.464 115.507 2.016C115.955 1.568 116.477 1.216 117.075 0.959999C117.693 0.682666 118.344 0.543999 119.027 0.543999C119.731 0.543999 120.392 0.682666 121.011 0.959999C121.629 1.216 122.163 1.568 122.611 2.016C123.08 2.464 123.453 2.99733 123.731 3.616C124.008 4.23466 124.147 4.896 124.147 5.6ZM154.737 22.112C154.502 22.4107 154.267 22.6453 154.033 22.816C153.819 22.9867 153.499 23.072 153.073 23.072C152.667 23.072 152.273 22.9547 151.889 22.72C151.505 22.464 151.046 22.1867 150.513 21.888C149.979 21.568 149.339 21.2907 148.593 21.056C147.867 20.8 146.961 20.672 145.873 20.672C144.486 20.672 143.27 20.928 142.225 21.44C141.179 21.9307 140.305 22.6453 139.601 23.584C138.918 24.5227 138.406 25.664 138.065 27.008C137.723 28.3307 137.553 29.8347 137.553 31.52C137.553 33.2693 137.734 34.8267 138.097 36.192C138.481 37.5573 139.025 38.7093 139.729 39.648C140.433 40.5653 141.286 41.2693 142.289 41.76C143.291 42.2293 144.422 42.464 145.681 42.464C146.939 42.464 147.953 42.3147 148.721 42.016C149.51 41.696 150.171 41.3547 150.705 40.992C151.238 40.608 151.697 40.2667 152.081 39.968C152.486 39.648 152.934 39.488 153.425 39.488C154.065 39.488 154.545 39.7333 154.865 40.224L157.137 43.104C156.262 44.128 155.313 44.992 154.289 45.696C153.265 46.3787 152.198 46.9333 151.089 47.36C150.001 47.7653 148.87 48.0533 147.697 48.224C146.545 48.3947 145.393 48.48 144.241 48.48C142.214 48.48 140.305 48.1067 138.513 47.36C136.721 46.592 135.153 45.4827 133.809 44.032C132.465 42.5813 131.398 40.8107 130.609 38.72C129.841 36.608 129.457 34.208 129.457 31.52C129.457 29.1093 129.798 26.88 130.481 24.832C131.185 22.7627 132.209 20.9813 133.553 19.488C134.897 17.9733 136.561 16.7893 138.545 15.936C140.529 15.0827 142.811 14.656 145.392 14.656C147.846 14.656 149.99 15.0507 151.825 15.84C153.681 16.6293 155.345 17.76 156.817 19.232L154.737 22.112ZM179.536 33.984C177.253 34.0907 175.333 34.2933 173.776 34.592C172.218 34.8693 170.97 35.232 170.032 35.68C169.093 36.128 168.421 36.6507 168.016 37.248C167.61 37.8453 167.408 38.496 167.408 39.2C167.408 40.5867 167.813 41.5787 168.624 42.176C169.456 42.7733 170.533 43.072 171.856 43.072C173.477 43.072 174.874 42.784 176.048 42.208C177.242 41.6107 178.405 40.7147 179.536 39.52V33.984ZM161.424 19.744C165.2 16.288 169.744 14.56 175.056 14.56C176.976 14.56 178.693 14.88 180.208 15.52C181.722 16.1387 183.002 17.0133 184.048 18.144C185.093 19.2533 185.882 20.5867 186.416 22.144C186.97 23.7013 187.248 25.408 187.248 27.264V48H183.664C182.917 48 182.341 47.8933 181.936 47.68C181.53 47.4453 181.21 46.9867 180.976 46.304L180.272 43.936C179.44 44.6827 178.629 45.344 177.84 45.92C177.05 46.4747 176.229 46.944 175.376 47.328C174.522 47.712 173.605 48 172.624 48.192C171.664 48.4053 170.597 48.512 169.424 48.512C168.037 48.512 166.757 48.3307 165.584 47.968C164.41 47.584 163.397 47.0187 162.544 46.272C161.69 45.5253 161.029 44.5973 160.56 43.488C160.09 42.3787 159.856 41.088 159.856 39.616C159.856 38.784 159.994 37.9627 160.272 37.152C160.549 36.32 160.997 35.5307 161.616 34.784C162.256 34.0373 163.077 33.3333 164.08 32.672C165.082 32.0107 166.309 31.4347 167.76 30.944C169.232 30.4533 170.938 30.0587 172.88 29.76C174.821 29.44 177.04 29.248 179.536 29.184V27.264C179.536 25.0667 179.066 23.4453 178.128 22.4C177.189 21.3333 175.834 20.8 174.064 20.8C172.784 20.8 171.717 20.9493 170.864 21.248C170.032 21.5467 169.296 21.888 168.656 22.272C168.016 22.6347 167.429 22.9653 166.896 23.264C166.384 23.5627 165.808 23.712 165.168 23.712C164.613 23.712 164.144 23.5733 163.76 23.296C163.376 22.9973 163.066 22.656 162.832 22.272L161.424 19.744ZM202.791 0.447998V48H194.887V0.447998H202.791Z" fill="#336CFB"/>
<path d="M228.527 43.36C229.935 43.36 231.183 43.2427 232.271 43.008C233.359 42.7733 234.319 42.4853 235.151 42.144C235.983 41.8027 236.687 41.4293 237.263 41.024C237.86 40.5973 238.372 40.2133 238.799 39.872C239.247 39.5307 239.62 39.2427 239.919 39.008C240.217 38.7733 240.484 38.656 240.719 38.656C240.911 38.656 241.071 38.6987 241.199 38.784C241.327 38.848 241.433 38.9333 241.519 39.04L243.599 41.632C241.593 43.808 239.279 45.504 236.655 46.72C234.052 47.9147 231.012 48.512 227.535 48.512C224.783 48.512 222.319 48.0213 220.143 47.04C217.988 46.0587 216.153 44.6933 214.639 42.944C213.145 41.1733 211.993 39.072 211.183 36.64C210.393 34.208 209.999 31.5307 209.999 28.608C209.999 24.6187 210.617 20.9707 211.855 17.664C213.092 14.3573 214.788 11.52 216.943 9.152C219.119 6.76266 221.668 4.91733 224.591 3.616C227.513 2.29333 230.66 1.632 234.031 1.632C235.652 1.632 237.124 1.77066 238.447 2.048C239.769 2.32533 240.975 2.73066 242.063 3.264C243.151 3.79733 244.132 4.43733 245.007 5.184C245.903 5.93066 246.735 6.76266 247.503 7.68L245.455 10.176C245.284 10.3893 245.092 10.5707 244.879 10.72C244.665 10.848 244.399 10.912 244.079 10.912C243.695 10.912 243.289 10.6987 242.863 10.272C242.436 9.84533 241.849 9.38667 241.103 8.896C240.377 8.384 239.428 7.91467 238.255 7.488C237.103 7.06133 235.599 6.848 233.743 6.848C231.247 6.848 228.921 7.34933 226.767 8.352C224.633 9.33333 222.777 10.752 221.199 12.608C219.62 14.4427 218.372 16.672 217.455 19.296C216.559 21.92 216.111 24.864 216.111 28.128C216.111 30.496 216.42 32.6187 217.039 34.496C217.657 36.3733 218.511 37.9733 219.599 39.296C220.708 40.5973 222.02 41.6 223.535 42.304C225.049 43.008 226.713 43.36 228.527 43.36ZM270.558 19.552C270.089 19.4453 269.62 19.3813 269.15 19.36C268.702 19.3173 268.254 19.296 267.806 19.296C266.526 19.296 265.289 19.5093 264.094 19.936C262.9 20.3413 261.78 20.9173 260.734 21.664C259.689 22.4107 258.74 23.3067 257.886 24.352C257.033 25.376 256.297 26.5067 255.678 27.744C255.081 28.9813 254.612 30.304 254.27 31.712C253.929 33.0987 253.758 34.528 253.758 36C253.758 41.1413 255.401 43.712 258.686 43.712C259.732 43.712 260.756 43.392 261.758 42.752C262.761 42.0907 263.71 41.184 264.606 40.032C265.524 38.8587 266.366 37.4827 267.134 35.904C267.902 34.304 268.585 32.5547 269.182 30.656L270.558 19.552ZM268.382 39.456C267.614 40.8213 266.782 42.0587 265.886 43.168C265.012 44.2773 264.073 45.2267 263.07 46.016C262.089 46.784 261.044 47.3813 259.934 47.808C258.846 48.2347 257.716 48.448 256.542 48.448C255.262 48.448 254.1 48.2027 253.054 47.712C252.009 47.2 251.113 46.464 250.366 45.504C249.641 44.5227 249.076 43.328 248.67 41.92C248.265 40.4907 248.062 38.8587 248.062 37.024C248.062 35.104 248.297 33.2373 248.766 31.424C249.257 29.5893 249.94 27.8613 250.814 26.24C251.71 24.6187 252.777 23.136 254.014 21.792C255.252 20.4267 256.628 19.2533 258.142 18.272C259.678 17.2693 261.321 16.5013 263.07 15.968C264.82 15.4133 266.654 15.136 268.574 15.136C269.961 15.136 271.305 15.2533 272.606 15.488C273.929 15.7013 275.23 16.0853 276.51 16.64L272.638 48H269.694C268.948 48 268.436 47.808 268.158 47.424C267.902 47.04 267.774 46.5707 267.774 46.016L268.382 39.456ZM289.266 24.608C290.119 22.7947 291.037 21.2267 292.018 19.904C293.021 18.56 294.066 17.5147 295.154 16.768C296.242 16 297.362 15.5413 298.514 15.392C299.666 15.2213 300.839 15.392 302.034 15.904L301.01 21.376C298.237 20.2667 295.783 20.672 293.65 22.592C291.538 24.512 289.821 27.9787 288.498 32.992L286.706 48H281.138L285.042 15.552H287.858C289.159 15.552 289.81 16.192 289.81 17.472L289.266 24.608ZM318.406 19.232C317.062 19.232 315.824 19.5093 314.694 20.064C313.563 20.6187 312.56 21.3867 311.686 22.368C310.811 23.328 310.064 24.4693 309.446 25.792C308.827 27.0933 308.347 28.5013 308.006 30.016C311.291 29.6107 313.926 29.152 315.91 28.64C317.894 28.1067 319.419 27.5413 320.486 26.944C321.552 26.3253 322.256 25.664 322.598 24.96C322.939 24.256 323.11 23.52 323.11 22.752C323.11 22.368 323.024 21.9733 322.854 21.568C322.683 21.1413 322.406 20.7573 322.022 20.416C321.659 20.0747 321.179 19.7973 320.582 19.584C319.984 19.3493 319.259 19.232 318.406 19.232ZM327.43 42.016C326.342 43.1467 325.275 44.1173 324.23 44.928C323.184 45.7173 322.118 46.3787 321.03 46.912C319.963 47.4453 318.832 47.8293 317.638 48.064C316.464 48.32 315.195 48.448 313.83 48.448C311.974 48.448 310.31 48.1387 308.838 47.52C307.366 46.9013 306.118 46.0267 305.094 44.896C304.07 43.744 303.28 42.3573 302.726 40.736C302.171 39.1147 301.894 37.3013 301.894 35.296C301.894 33.632 302.064 31.9787 302.406 30.336C302.768 28.672 303.28 27.0933 303.942 25.6C304.624 24.1067 305.446 22.72 306.406 21.44C307.387 20.16 308.496 19.0613 309.734 18.144C310.992 17.2053 312.368 16.4693 313.862 15.936C315.376 15.4027 316.998 15.136 318.726 15.136C320.368 15.136 321.787 15.3707 322.982 15.84C324.176 16.3093 325.158 16.9067 325.926 17.632C326.694 18.3573 327.259 19.1573 327.622 20.032C328.006 20.9067 328.198 21.7387 328.198 22.528C328.198 23.936 327.91 25.2373 327.334 26.432C326.758 27.6053 325.702 28.672 324.166 29.632C322.63 30.5707 320.518 31.392 317.83 32.096C315.142 32.8 311.686 33.3653 307.462 33.792C307.462 34.0267 307.451 34.2613 307.43 34.496C307.43 34.7093 307.43 34.9333 307.43 35.168C307.43 38.0267 308.048 40.2133 309.286 41.728C310.544 43.2213 312.432 43.968 314.95 43.968C315.974 43.968 316.88 43.8613 317.67 43.648C318.48 43.4347 319.195 43.1787 319.814 42.88C320.454 42.56 321.008 42.2187 321.478 41.856C321.968 41.472 322.406 41.1307 322.79 40.832C323.195 40.512 323.568 40.2453 323.91 40.032C324.251 39.8187 324.592 39.712 324.934 39.712C325.339 39.712 325.702 39.8933 326.022 40.256L327.43 42.016Z" fill="#FF6760"/>
</svg>
